<?xml version="1.0" standalone="no"?><!DOCTYPE svg PUBLIC "-//W3C//DTD SVG 1.1//EN" "http://www.w3.org/Graphics/SVG/1.1/DTD/svg11.dtd"><svg t="1562654870074" class="icon" viewBox="0 0 1024 1024" version="1.1" xmlns="http://www.w3.org/2000/svg" p-id="2234" xmlns:xlink="http://www.w3.org/1999/xlink" width="200" height="200"><defs><style type="text/css"></style></defs><path d="M1006.281283 176.566399c-144.248157 0-352.236847-74.427953-483.749696-173.04659a17.66304 17.66304 0 0 0-21.118851 0C369.899887 102.138446 161.911196 176.630396 17.535047 176.630396A17.66304 17.66304 0 0 0 0 194.229439c0 371.691789 198.26122 696.794112 504.996541 828.306961a17.66304 17.66304 0 0 0 13.951241 0c306.735321-131.512849 504.932544-456.615172 504.932545-828.306961a17.66304 17.66304 0 0 0-17.599044-17.66304zM511.972162 987.018331V511.972162H88.443191a960.267785 960.267785 0 0 1-52.989119-300.463663C181.366138 206.004798 380.13933 134.392692 511.972162 39.549849V511.972162h423.52897C860.561207 726.360504 710.361374 899.471091 511.972162 987.018331z" p-id="2235"></path></svg>